<mxfile host="app.diagrams.net" modified="2023-06-23T09:25:25.094Z" agent="Mozilla/5.0 (Windows NT 10.0; Win64; x64; rv:109.0) Gecko/20100101 Firefox/115.0" etag="oY2AiBZyguZVIW_m_YvS" version="21.3.8" type="github">
  <diagram name="ERD for MentorshipTrackr" id="I61qiS36ppLNpM7U2kTp">
    <mxGraphModel dx="683" dy="390" grid="0" gridSize="10" guides="1" tooltips="1" connect="1" arrows="1" fold="1" page="0" pageScale="1" pageWidth="850" pageHeight="1100" math="0" shadow="0">
      <root>
        <mxCell id="0" />
        <mxCell id="1" parent="0" />
      </root>
    </mxGraphModel>
  </diagram>
</mxfile>
